<svg xmlns="http://www.w3.org/2000/svg" viewBox="0 0 64 64">
  <defs>
    <linearGradient id="bg" x1="8" y1="5" x2="57" y2="61" gradientUnits="userSpaceOnUse">
      <stop stop-color="#174da9"/>
      <stop offset="1" stop-color="#03194f"/>
    </linearGradient>
    <linearGradient id="heart" x1="18" y1="16" x2="47" y2="50" gradientUnits="userSpaceOnUse">
      <stop stop-color="#9bd6ff"/>
      <stop offset="0.48" stop-color="#3a91f4"/>
      <stop offset="1" stop-color="#1764cf"/>
    </linearGradient>
    <filter id="glow" x="-30%" y="-30%" width="160%" height="160%">
      <feGaussianBlur stdDeviation="2" result="blur"/>
      <feMerge>
        <feMergeNode in="blur"/>
        <feMergeNode in="SourceGraphic"/>
      </feMerge>
    </filter>
  </defs>
  <rect x="2" y="2" width="60" height="60" rx="18" fill="url(#bg)"/>
  <rect x="3" y="3" width="58" height="58" rx="17" fill="none" stroke="#8fcaff" stroke-opacity=".45"/>
  <path d="M32 51S13 40.2 13 25.7C13 19.2 17.8 15 23.6 15c3.7 0 6.7 1.8 8.4 4.6 1.7-2.8 4.7-4.6 8.4-4.6C46.2 15 51 19.2 51 25.7 51 40.2 32 51 32 51Z" fill="url(#heart)" stroke="#d8efff" stroke-width="1.5" filter="url(#glow)"/>
  <path d="M21.5 23.5c1.4-3 5.2-3.7 7.8-1.3" fill="none" stroke="#fff" stroke-linecap="round" stroke-opacity=".72" stroke-width="2"/>
  <circle cx="49" cy="13" r="1.6" fill="#fff"/>
</svg>
